<svg xmlns="http://www.w3.org/2000/svg" viewBox="0 0 470 120" width="470" height="120" role="img" aria-label="東和盛泰株式会社 毛糸玉ロゴ">
  <defs>
    <linearGradient id="tw-yh-grad" x1="0" y1="0" x2="1" y2="1">
      <stop offset="0" stop-color="#5ec8ff"/>
      <stop offset=".55" stop-color="#2e9bf0"/>
      <stop offset="1" stop-color="#1f7fe0"/>
    </linearGradient>
    <clipPath id="tw-yh-ball"><circle cx="58" cy="62" r="36"/></clipPath>
  </defs>
  <circle cx="58" cy="62" r="36" fill="url(#tw-yh-grad)"/>
  <g clip-path="url(#tw-yh-ball)" fill="none" stroke="#fff" stroke-opacity=".6" stroke-width="2.7" stroke-linecap="round">
    <path d="M20 52 C40 34, 76 34, 96 52"/>
    <path d="M17 66 C40 46, 76 46, 99 66"/>
    <path d="M19 80 C42 62, 74 62, 97 80"/>
    <path d="M32 26 C48 52, 48 76, 38 100"/>
    <path d="M57 22 C73 50, 73 78, 63 102"/>
    <path d="M82 28 C95 54, 91 78, 84 96"/>
  </g>
  <circle cx="58" cy="62" r="36" fill="none" stroke="#fff" stroke-opacity=".95" stroke-width="2.2"/>
  <path d="M80 34 C98 22, 108 34, 98 43 C91 48, 88 39, 95 37"
        fill="none" stroke="#ff8f73" stroke-width="3.2" stroke-linecap="round"/>
  <text x="116" y="54" font-family="'Noto Sans JP', sans-serif" font-weight="700" font-size="32" fill="#1f7fe0" letter-spacing="3">東和盛泰</text>
  <text x="118" y="84" font-family="'Cormorant Garamond', serif" font-weight="600" font-size="14" fill="#5ec8ff" letter-spacing="4">TOUWASEITAI CO., LTD.</text>
</svg>
